<svg width="18" height="21" viewBox="0 0 18 21" fill="none" xmlns="http://www.w3.org/2000/svg">
<path d="M5.46414 11.49H10.7141L17.2841 21H11.3441L5.46414 11.49ZM0.214141 -1.43051e-06H5.28414V21H0.214141V-1.43051e-06ZM3.39414 4.29V-1.43051e-06H7.86414C9.66414 -1.43051e-06 11.1641 0.289999 12.3641 0.87C13.5641 1.45 14.4741 2.26 15.0941 3.3C15.7141 4.32 16.0241 5.51 16.0241 6.87C16.0241 8.21 15.7141 9.4 15.0941 10.44C14.4741 11.46 13.5641 12.26 12.3641 12.84C11.1641 13.42 9.66414 13.71 7.86414 13.71H3.39414V9.78H7.50414C8.18414 9.78 8.76414 9.68 9.24414 9.48C9.74414 9.26 10.1241 8.95 10.3841 8.55C10.6441 8.13 10.7741 7.63 10.7741 7.05C10.7741 6.47 10.6441 5.98 10.3841 5.58C10.1241 5.16 9.74414 4.84 9.24414 4.62C8.76414 4.4 8.18414 4.29 7.50414 4.29H3.39414Z" fill="white"/>
</svg>
